<svg width="116" height="102" viewBox="0 0 116 102" fill="none" xmlns="http://www.w3.org/2000/svg">
<path d="M4 35V82C4 90.8366 11.1634 98 20 98H96C104.837 98 112 90.8366 112 82V35" stroke="#5B5B5B" stroke-width="8"/>
<path d="M55.1716 68.8284C56.7337 70.3905 59.2663 70.3905 60.8284 68.8284L86.2843 43.3726C87.8464 41.8105 87.8464 39.2778 86.2843 37.7157C84.7222 36.1536 82.1895 36.1536 80.6274 37.7157L58 60.3431L35.3726 37.7157C33.8105 36.1536 31.2778 36.1536 29.7157 37.7157C28.1536 39.2778 28.1536 41.8105 29.7157 43.3726L55.1716 68.8284ZM58 0H54V66H58H62V0H58Z" fill="#5B5B5B"/>
</svg>
