<svg width="32" height="53" viewBox="0 0 32 53" fill="none" xmlns="http://www.w3.org/2000/svg">
<path d="M30.8203 16.8188V46.354C30.8203 49.2492 28.4733 51.5961 25.5781 51.5962H6.74609C3.85093 51.596 1.50391 49.2492 1.50391 46.354V16.8188H30.8203Z" stroke="black" stroke-width="2.35955"/>
<path d="M7.80176 20.665V45.8186" stroke="black" stroke-width="1.07036"/>
<path d="M16.7178 20.665V45.8186" stroke="black" stroke-width="1.07036"/>
<path d="M25.6348 20.665V45.8186" stroke="black" stroke-width="1.07036"/>
<path d="M30.5742 11.7979C30.0125 8.45018 27.103 5.89853 23.5957 5.89844H8.25879C4.75139 5.89844 1.84104 8.45008 1.2793 11.7979H30.5742Z" stroke="black" stroke-width="2.35955"/>
<path d="M22.7715 5.13232C22.4014 2.66177 20.2709 0.767268 17.6973 0.76709H15.3369C12.7633 0.767308 10.6328 2.66179 10.2627 5.13232H22.7715Z" stroke="black" stroke-width="1.53371"/>
</svg>
