<svg width="61" height="34" viewBox="0 0 61 34" fill="none" xmlns="http://www.w3.org/2000/svg">
<path d="M31.3506 1.5C37.5668 1.5 44.6525 5.1346 50.3105 9.36133C53.1096 11.4523 55.484 13.6324 57.1426 15.4648C57.9739 16.3833 58.6018 17.1888 59.0117 17.8311C59.2168 18.1524 59.351 18.408 59.4297 18.5967C59.4722 18.6986 59.4892 18.7608 59.4961 18.7881C59.4871 18.9018 59.4069 19.2345 59.0029 19.8154C58.5954 20.4015 57.9617 21.0967 57.1025 21.8662C55.3882 23.4016 52.9206 25.1065 50.0039 26.6992C44.1442 29.8988 36.7431 32.4999 30.3789 32.5C24.0322 32.5 16.6996 29.7756 10.8916 26.5049C8.0034 24.8784 5.5587 23.1537 3.8584 21.6357C3.00549 20.8743 2.37445 20.1959 1.96973 19.6367C1.53422 19.035 1.50094 18.7632 1.5 18.7676C1.50018 18.6147 1.60022 18.1816 2.07031 17.4268C2.51441 16.7137 3.19333 15.8642 4.09473 14.9219C5.89436 13.0406 8.46635 10.9072 11.4756 8.89746C17.5439 4.84465 25.0797 1.5 31.3506 1.5Z" stroke="black" stroke-width="3"/>
<circle cx="30.4727" cy="16.4727" r="8.9727" fill="black" stroke="black" stroke-width="3"/>
</svg>
